# Blender v2.83.2 OBJ File: 'hammer.blend'
# www.blender.org
o Cube
v -0.722728 -0.198102 0.198102
v -0.722728 0.198102 0.198102
v -0.722728 -0.198102 -0.198102
v -0.722728 0.198102 -0.198102
v 2.203759 -0.198102 0.198102
v 2.203759 0.198102 0.198102
v 2.203759 -0.198102 -0.198102
v 2.203759 0.198102 -0.198102
v -1.060000 0.244277 0.465424
v -0.848450 0.122138 0.465424
v -1.060000 0.400000 -0.300000
v -1.060000 0.400000 0.300000
v -0.713590 0.200000 -0.300000
v -0.713590 0.200000 0.300000
v -0.713590 -0.200000 -0.300000
v -0.713590 -0.200000 0.300000
v -1.060000 -0.400000 -0.300000
v -1.060000 -0.400000 0.300000
v -1.406410 -0.200000 -0.300000
v -1.406410 -0.200000 0.300000
v -1.406410 0.200000 -0.300000
v -1.406410 0.200000 0.300000
v -0.848450 -0.122138 0.465424
v -1.060000 -0.244277 0.465424
v -1.271550 -0.122138 0.465424
v -1.271550 0.122138 0.465424
v -1.060000 0.244277 0.587517
v -1.271550 0.122138 0.587517
v -1.271550 -0.122138 0.587517
v -1.060000 -0.244277 0.587517
v -0.848450 -0.122138 0.587517
v -0.848450 0.122138 0.587517
v -1.060000 0.314969 0.812725
v -1.332771 0.157485 0.812725
v -1.332771 -0.157485 0.812725
v -1.060000 -0.314969 0.812725
v -0.787229 -0.157485 0.812725
v -0.787229 0.157485 0.812725
v -1.060000 0.314969 1.008944
v -1.332771 0.157485 1.008944
v -1.332771 -0.157485 1.008944
v -1.060000 -0.314969 1.008944
v -0.787229 -0.157485 1.008944
v -0.787229 0.157485 1.008944
v -1.065067 0.400000 -0.679666
v -1.065067 -0.400000 -0.679666
v -1.401343 -0.200000 -0.762847
v -1.401343 0.200000 -0.762847
v -1.201372 -0.165558 -1.141635
v -1.201372 0.165558 -1.141635
v -1.077757 0.331116 -1.058003
v -1.077757 -0.331116 -1.058003
v -0.988937 -0.118882 -1.418085
v -0.988937 0.118882 -1.418085
v -0.900173 0.237764 -1.358032
v -0.900173 -0.237764 -1.358032
vn 0.0000 1.0000 0.0000
vn 0.0000 0.0000 1.0000
vn -1.0000 0.0000 0.0000
vn 0.0000 -1.0000 0.0000
vn 1.0000 0.0000 0.0000
vn 0.0000 0.0000 -1.0000
vn 0.3875 0.6712 0.6319
vn 0.5000 0.8660 0.0000
vn 0.5000 -0.8660 0.0000
vn -0.3875 0.6712 0.6319
vn -0.5000 0.8660 0.0000
vn 0.7751 0.0000 0.6319
vn 0.9650 0.0000 -0.2623
vn -0.7751 0.0000 0.6319
vn -0.5000 -0.8660 0.0000
vn -0.3875 -0.6712 0.6319
vn 0.3875 -0.6712 0.6319
vn 0.5000 -0.8660 -0.0067
vn -0.4825 -0.8357 -0.2623
vn -0.4825 0.8357 -0.2623
vn 0.4825 0.8357 -0.2623
vn 0.4825 -0.8357 -0.2623
vn -0.9650 0.0000 -0.2623
vn -0.6302 0.6693 -0.3935
vn -0.5000 -0.8660 0.0067
vn -0.5101 0.8601 -0.0056
vn -0.9999 0.0000 -0.0109
vn 0.5000 0.8660 -0.0067
vn 0.7338 0.0000 -0.6793
vn 0.8606 0.0000 0.5094
vn -0.4799 -0.8658 -0.1415
vn -0.8843 0.0000 -0.4669
vn 0.9994 0.0000 -0.0335
vn 0.5604 0.0000 -0.8283
vn -0.5349 0.6636 -0.5231
vn -0.5349 -0.6636 -0.5231
vn -0.7929 0.0000 -0.6093
vn -0.4799 0.8658 -0.1415
vn -0.5101 -0.8601 -0.0056
vn -0.5000 0.8660 0.0067
vn -0.6302 -0.6693 -0.3935
s off
f 5//1 3//1 1//1
f 3//2 8//2 4//2
f 7//3 6//3 8//3
f 2//4 8//4 6//4
f 1//5 4//5 2//5
f 5//6 2//6 6//6
f 25//3 28//3 26//3
f 12//7 10//7 14//7
f 12//8 13//8 11//8
f 23//9 30//9 24//9
f 22//10 9//10 12//10
f 14//5 15//5 13//5
f 9//11 28//11 27//11
f 14//12 23//12 16//12
f 16//9 17//9 15//9
f 31//13 38//13 37//13
f 20//14 26//14 22//14
f 18//15 19//15 17//15
f 20//16 24//16 25//16
f 9//8 32//8 10//8
f 20//3 21//3 19//3
f 24//15 29//15 25//15
f 18//17 23//17 24//17
f 22//11 11//11 21//11
f 15//18 17//18 46//18
f 10//5 31//5 23//5
f 33//8 44//8 38//8
f 30//19 35//19 29//19
f 28//20 33//20 27//20
f 27//21 38//21 32//21
f 30//22 37//22 36//22
f 29//23 34//23 28//23
f 42//2 43//2 39//2
f 37//9 42//9 36//9
f 35//3 40//3 34//3
f 38//5 43//5 37//5
f 36//15 41//15 35//15
f 34//11 39//11 33//11
f 48//24 51//24 50//24
f 19//25 46//25 17//25
f 21//26 45//26 48//26
f 21//27 47//27 19//27
f 11//28 13//28 45//28
f 15//29 45//29 13//29
f 52//30 55//30 51//30
f 47//31 52//31 46//31
f 48//32 49//32 47//32
f 46//33 51//33 45//33
f 55//34 53//34 54//34
f 50//35 55//35 54//35
f 49//36 56//36 52//36
f 50//37 53//37 49//37
f 5//1 7//1 3//1
f 3//2 7//2 8//2
f 7//3 5//3 6//3
f 2//4 4//4 8//4
f 1//5 3//5 4//5
f 5//6 1//6 2//6
f 25//3 29//3 28//3
f 12//7 9//7 10//7
f 12//8 14//8 13//8
f 23//9 31//9 30//9
f 22//10 26//10 9//10
f 14//5 16//5 15//5
f 9//11 26//11 28//11
f 14//12 10//12 23//12
f 16//9 18//9 17//9
f 31//13 32//13 38//13
f 20//14 25//14 26//14
f 18//15 20//15 19//15
f 20//16 18//16 24//16
f 9//8 27//8 32//8
f 20//3 22//3 21//3
f 24//15 30//15 29//15
f 18//17 16//17 23//17
f 22//11 12//11 11//11
f 10//5 32//5 31//5
f 33//8 39//8 44//8
f 30//19 36//19 35//19
f 28//20 34//20 33//20
f 27//21 33//21 38//21
f 30//22 31//22 37//22
f 29//23 35//23 34//23
f 43//2 44//2 39//2
f 39//2 40//2 41//2
f 41//2 42//2 39//2
f 37//9 43//9 42//9
f 35//3 41//3 40//3
f 38//5 44//5 43//5
f 36//15 42//15 41//15
f 34//11 40//11 39//11
f 48//38 45//38 51//38
f 19//39 47//39 46//39
f 21//40 11//40 45//40
f 21//27 48//27 47//27
f 15//29 46//29 45//29
f 52//30 56//30 55//30
f 47//41 49//41 52//41
f 48//32 50//32 49//32
f 46//33 52//33 51//33
f 55//34 56//34 53//34
f 50//35 51//35 55//35
f 49//36 53//36 56//36
f 50//37 54//37 53//37
